<svg width="20" height="21" viewBox="0 0 20 21" fill="none" xmlns="http://www.w3.org/2000/svg">
<g clip-path="url(#clip0_157_100)">
<path d="M10 20.4822C15.5228 20.4822 20 16.0051 20 10.4822C20 4.95939 15.5228 0.482239 10 0.482239C4.47715 0.482239 0 4.95939 0 10.4822C0 16.0051 4.47715 20.4822 10 20.4822Z" fill="#FF4A00"/>
<path d="M11.25 10.4844C11.2501 10.8446 11.185 11.2019 11.058 11.5391C10.7206 11.6666 10.3629 11.732 10.0021 11.7322H9.99785C9.6376 11.7323 9.2803 11.6672 8.94316 11.5402C8.81564 11.2028 8.7502 10.8451 8.75 10.4844V10.4801C8.75004 10.1198 8.81508 9.76256 8.94199 9.4254C9.27942 9.29787 9.63713 9.23243 9.99785 9.23224H10.0021C10.3628 9.23209 10.7205 9.2972 11.058 9.42443C11.185 9.76155 11.2501 10.1189 11.25 10.4791V10.4834V10.4844ZM14.9305 9.64884H12.0117L14.0756 7.58517C13.9135 7.35782 13.7327 7.14439 13.5352 6.94708C13.3378 6.7498 13.1244 6.5693 12.8971 6.40743L10.8334 8.47052V5.55177C10.5589 5.50566 10.2811 5.4824 10.0027 5.48224H9.99746C9.71913 5.4824 9.44129 5.50566 9.1668 5.55177V8.47052L7.10293 6.40665C6.87559 6.56876 6.66216 6.74953 6.46484 6.94708C6.26764 7.14431 6.0872 7.35761 5.92539 7.58478L7.98828 9.64884H5.06953C5.06953 9.64884 5 10.1971 5 10.4805V10.484C5.00011 10.7627 5.02337 11.0408 5.06953 11.3156H7.98828L5.92441 13.3793C6.24896 13.835 6.64727 14.2333 7.10293 14.5578L9.1666 12.494V15.4127C9.44083 15.4588 9.71841 15.482 9.99648 15.4822H10.0037C10.2817 15.482 10.5592 15.4587 10.8334 15.4127V12.494L12.8971 14.5578C13.1244 14.3957 13.3378 14.2149 13.5352 14.0174C13.7325 13.82 13.9131 13.6066 14.075 13.3793L12.0117 11.3156H14.9305C14.9765 11.0414 14.9998 10.7638 15 10.4858V10.4785C14.9998 10.2005 14.9765 9.92301 14.9305 9.64884Z" fill="white"/>
</g>
<defs>
<clipPath id="clip0_157_100">
<rect width="20" height="20" fill="white" transform="translate(0 0.482239)"/>
</clipPath>
</defs>
</svg>
