<svg width="15" height="15" viewBox="0 0 15 15" fill="none" xmlns="http://www.w3.org/2000/svg">
<path d="M0.240234 5.3417C0.240234 3.47194 0.240234 2.53705 0.604116 1.82289C0.924197 1.1947 1.43494 0.683963 2.06313 0.363881C2.77728 0 3.71217 0 5.58193 0H9.65854C11.5283 0 12.4632 0 13.1773 0.363881C13.8055 0.683963 14.3163 1.1947 14.6363 1.82289C15.0002 2.53705 15.0002 3.47194 15.0002 5.3417V9.4183C15.0002 11.2881 15.0002 12.223 14.6363 12.9371C14.3163 13.5653 13.8055 14.076 13.1773 14.3961C12.4632 14.76 11.5283 14.76 9.65854 14.76H5.58193C3.71217 14.76 2.77728 14.76 2.06313 14.3961C1.43494 14.076 0.924197 13.5653 0.604116 12.9371C0.240234 12.223 0.240234 11.2881 0.240234 9.4183V5.3417Z" fill="#330000"/>
<path d="M7.39269 9.27576H5.10547L4.64011 10.7585C4.6272 10.8135 4.57649 10.8526 4.5213 10.8498H3.36281C3.29675 10.8498 3.27365 10.8126 3.29351 10.7381L5.27379 4.88862C5.29361 4.82768 5.31343 4.75831 5.3332 4.68045C5.35914 4.54492 5.37237 4.40723 5.37284 4.26917C5.36715 4.22837 5.40299 4.19233 5.44211 4.19805H7.01647C7.0626 4.19805 7.08896 4.21498 7.09565 4.24882L9.34333 10.7483C9.3631 10.816 9.34333 10.8499 9.28393 10.8498H7.9967C7.95157 10.855 7.90845 10.824 7.8977 10.7788L7.39269 9.27576ZM5.46193 7.99618H7.02638C6.76935 7.11785 6.47926 6.25107 6.24416 5.36594C5.9905 6.2526 5.71375 7.13567 5.46193 7.99618Z" fill="#FF9A00"/>
<path d="M10.68 5.27449C10.579 5.27865 10.4783 5.26089 10.3844 5.22241C10.2906 5.18393 10.2057 5.12552 10.1354 5.05109C10.0653 4.97339 10.0108 4.8823 9.97507 4.78293C9.93938 4.68362 9.9232 4.57803 9.92741 4.47223C9.92383 4.36749 9.9418 4.26317 9.98018 4.16604C10.0186 4.06892 10.0765 3.9812 10.1502 3.9086C10.2232 3.83675 10.3093 3.78047 10.4037 3.74299C10.498 3.70551 10.5986 3.68759 10.6997 3.69026C10.9374 3.69026 11.1239 3.76304 11.2592 3.9086C11.3275 3.98424 11.3806 4.07296 11.4154 4.16968C11.4502 4.26638 11.4661 4.36923 11.4621 4.47223C11.4663 4.5784 11.4496 4.68441 11.413 4.78382C11.3765 4.88324 11.3208 4.97412 11.2493 5.05109C11.1746 5.12663 11.0854 5.18545 10.9874 5.22394C10.8894 5.26236 10.7848 5.2796 10.68 5.27449ZM9.99673 10.7482V5.89399C9.99673 5.83305 10.023 5.80258 10.076 5.80258H11.2939C11.3466 5.80258 11.373 5.83305 11.373 5.89399V10.7482C11.373 10.816 11.3466 10.8499 11.2939 10.8498H10.0859C10.0265 10.8498 9.99673 10.816 9.99673 10.7482Z" fill="#FF9A00"/>
</svg>
