<svg width="16" height="15" viewBox="0 0 16 15" fill="none" xmlns="http://www.w3.org/2000/svg">
<path d="M0.620117 5.46169C0.620117 3.59193 0.620117 2.65704 0.983999 1.94289C1.30408 1.3147 1.81482 0.803958 2.44301 0.483877C3.15717 0.119995 4.09205 0.119995 5.96181 0.119995H10.0384C11.9082 0.119995 12.8431 0.119995 13.5572 0.483877C14.1854 0.803958 14.6961 1.3147 15.0162 1.94289C15.3801 2.65704 15.3801 3.59193 15.3801 5.46169V9.5383C15.3801 11.4081 15.3801 12.343 15.0162 13.0571C14.6961 13.6853 14.1854 14.196 13.5572 14.5161C12.8431 14.88 11.9082 14.88 10.0384 14.88H5.96181C4.09205 14.88 3.15717 14.88 2.44301 14.5161C1.81482 14.196 1.30408 13.6853 0.983999 13.0571C0.620117 12.343 0.620117 11.4081 0.620117 9.5383V5.46169Z" fill="#001E36"/>
<path d="M3.7832 10.935V4.44438C3.7832 4.40026 3.80165 4.37501 3.8447 4.37501C4.48024 4.37501 5.1155 4.33716 5.75119 4.33716C6.78275 4.33716 7.89966 4.68987 8.29117 5.76898C8.38342 6.03393 8.4326 6.30514 8.4326 6.58901C8.4326 7.13149 8.30962 7.5793 8.0636 7.93254C7.37642 8.91924 6.18539 8.9039 5.11777 8.9039V10.9287C5.1261 10.9886 5.07502 11.017 5.02552 11.017H3.857C3.80781 11.017 3.7832 10.9918 3.7832 10.935ZM5.12389 5.59239V7.71177C5.54723 7.74276 5.99019 7.74614 6.39694 7.61087C6.84601 7.4813 7.09192 7.09264 7.09192 6.62686C7.10436 6.22997 6.88813 5.84916 6.51997 5.70594C6.11813 5.53883 5.55767 5.52882 5.12389 5.59239Z" fill="#31A8FF"/>
<path d="M12.2687 7.29305C12.0827 7.19495 11.8845 7.1232 11.6796 7.07977C11.4163 7.01783 10.3779 6.80086 10.3775 7.34381C10.3867 7.64692 10.8679 7.79542 11.0805 7.88203C11.8269 8.13827 12.6715 8.5963 12.6549 9.51707C12.6777 10.6633 11.5671 11.1215 10.6152 11.1216C10.1196 11.1267 9.6033 11.05 9.14975 10.8372C9.10642 10.8143 9.07859 10.7653 9.08043 10.7154V9.61859C9.07553 9.57463 9.12276 9.5362 9.15966 9.56783C9.60404 9.83657 10.1308 9.96709 10.6449 9.97404C10.8718 9.97404 11.3216 9.95206 11.3182 9.61859C11.3182 9.29862 10.7801 9.15149 10.5657 9.07021C10.2547 8.95924 9.95997 8.80547 9.68939 8.61322C9.31121 8.34349 9.074 7.91102 9.08043 7.43522C9.07822 6.35595 10.1005 5.8715 11.0212 5.87129C11.4515 5.86771 11.9137 5.8996 12.3143 6.0744C12.372 6.09132 12.3839 6.15205 12.3837 6.2064V7.23211C12.3873 7.29579 12.3166 7.31746 12.2687 7.29305Z" fill="#31A8FF"/>
</svg>
