<svg width="17" height="18" viewBox="0 0 17 18" fill="none" xmlns="http://www.w3.org/2000/svg">
<path d="M1.12461 8.76801C1.12461 11.6907 2.82462 14.208 5.28307 15.4046L1.76538 5.76686C1.34298 6.71101 1.12463 7.73367 1.12461 8.76801ZM8.5 16.1434C9.35655 16.1434 10.1804 15.993 10.9519 15.7249L10.8996 15.6269L8.63076 9.41531L6.42076 15.8426C7.07462 16.0388 7.77424 16.1434 8.5 16.1434ZM9.51345 5.30915L12.1811 13.2403L12.92 10.7819C13.2339 9.76186 13.4758 9.02955 13.4758 8.39531C13.4758 7.47993 13.1489 6.85224 12.8742 6.36839C12.495 5.75377 12.1485 5.23724 12.1485 4.6357C12.1485 3.9557 12.6585 3.32801 13.3908 3.32801H13.4823C12.1233 2.08041 10.3448 1.38955 8.5 1.39262C7.2785 1.39239 6.07609 1.69583 5.00096 2.27562C3.92581 2.85542 3.01167 3.69339 2.34076 4.71415L2.81154 4.72724C3.58307 4.72724 4.77307 4.62915 4.77307 4.62915C5.17846 4.60955 5.22424 5.19146 4.82538 5.23724C4.82538 5.23724 4.42655 5.28955 3.97538 5.30915L6.66924 13.2992L8.28424 8.4607L7.13345 5.30915C6.8757 5.29494 6.61841 5.27313 6.36193 5.24377C5.96307 5.21762 6.00885 4.60955 6.40769 4.62915C6.40769 4.62915 7.62385 4.72724 8.34962 4.72724C9.12115 4.72724 10.3111 4.62915 10.3111 4.62915C10.71 4.60955 10.7623 5.19146 10.3635 5.23724C10.3635 5.23724 9.96462 5.28301 9.51345 5.30915ZM12.2073 15.143C13.3231 14.4943 14.249 13.564 14.8927 12.4454C15.5364 11.3267 15.8752 10.0587 15.8754 8.76801C15.8754 7.48646 15.5485 6.28339 14.9731 5.2307C15.0899 6.38884 14.9146 7.55781 14.4631 8.6307L12.2073 15.143ZM8.5 17.268C6.24566 17.268 4.08365 16.3725 2.4896 14.7784C0.895533 13.1844 0 11.0223 0 8.76801C0 6.51367 0.895533 4.35166 2.4896 2.7576C4.08365 1.16354 6.24566 0.268005 8.5 0.268005C10.7543 0.268005 12.9163 1.16354 14.5104 2.7576C16.1045 4.35166 17 6.51367 17 8.76801C17 11.0223 16.1045 13.1844 14.5104 14.7784C12.9163 16.3725 10.7543 17.268 8.5 17.268Z" fill="#126FC2"/>
</svg>
