<svg width="18" height="19" viewBox="0 0 18 19" fill="none" xmlns="http://www.w3.org/2000/svg">
<path fill-rule="evenodd" clip-rule="evenodd" d="M2 0.482239C0.895431 0.482239 0 1.37767 0 2.48224L0 16.4822C0 17.5868 0.89543 18.4822 2 18.4822L16 18.4822C17.1046 18.4822 18 17.5868 18 16.4822L18 2.48224C18 1.37767 17.1046 0.482239 16 0.482239L2 0.482239Z" fill="white"/>
<path fill-rule="evenodd" clip-rule="evenodd" d="M2 0.482239C0.895431 0.482239 0 1.37767 0 2.48224L0 16.4822C0 17.5868 0.89543 18.4822 2 18.4822L16 18.4822C17.1046 18.4822 18 17.5868 18 16.4822L18 2.48224C18 1.37767 17.1046 0.482239 16 0.482239L2 0.482239ZM12.401 7.82546C12.401 7.82546 11.428 10.7644 11.3485 11.0071C11.1035 9.16517 10.8561 7.32356 10.6065 5.48224C8.9485 5.48224 8.062 6.6187 7.5935 7.81824L6.311 11.0143C6.3035 10.7851 6.131 7.85291 6.131 7.85291C6.029 6.38322 4.631 5.4885 3.5 5.4885L4.8695 13.4822C6.6065 13.475 7.543 12.3453 8.0335 11.1458C8.0335 11.1458 9.0785 8.54634 9.1215 8.42837C9.129 8.53912 9.8715 13.4818 9.8715 13.4818C11.6155 13.4818 12.5525 12.4214 13.0565 11.2637L15.5 5.48898C13.7775 5.48898 12.8695 6.61918 12.401 7.82546Z" fill="#4353FF"/>
</svg>
